<?xml version="1.0" encoding="UTF-8"?>
<svg width="576px" height="55px" viewBox="0 0 576 55" version="1.1" xmlns="http://www.w3.org/2000/svg" xmlns:xlink="http://www.w3.org/1999/xlink">
    <title>logo</title>
    <desc>Aeroflot logo</desc>
    <defs></defs>
    <g id="Page-1" stroke="none" stroke-width="1" fill="none" fill-rule="evenodd">
        <g id="logo" fill-rule="nonzero" fill="#0E4D92">
            <polygon id="Shape" points="384.937 52.589 403.655 13.813 403.996 13.813 424.618 52.589 445.902 52.589 418.406 2.502 400.531 2.502 375.765 52.589"></polygon>
            <path d="M91.356,30.758 L120.657,30.351 C120.323,37.365 116.567,41.328 114.586,42.932 C109.717,46.828 102.85,47.186 99.549,47.186 C94.656,47.186 90.463,46.469 86.208,43.855 C83.491,42.299 80.379,39.43 78.812,37.145 L77.444,35.018 L67.933,40.64 C70.686,43.976 75.104,47.252 79.669,49.617 C86.768,53.191 93.289,54.096 101.154,54.096 C109.56,54.096 122.663,52.85 132.138,45.593 C138.708,40.64 141.711,33.705 141.711,27.585 C141.711,21.538 138.709,14.512 132.138,9.558 C123.945,3.323 112.021,1.055 101.379,1.055 C94.547,1.055 88.196,1.779 81.76,4.27 C76.411,6.148 72.23,8.834 67.933,12.597 L77.444,18.085 L79.82,15.568 C81.637,13.417 84.859,11.338 87.764,10.195 C91.617,8.402 95.689,7.903 99.871,7.903 C108.337,7.903 113.163,10.742 115.916,13.416 C117.709,15.136 120.11,18.412 120.657,23.487 L91.356,23.104 L91.356,30.758 Z" id="Shape"></path>
            <path d="M479.591,54.09 C488.52,54.09 500.931,51.981 509.178,45.599 C515.779,40.634 518.89,33.596 518.89,27.585 C518.89,21.623 515.779,14.518 509.178,9.564 C500.931,3.225 488.52,1.061 479.591,1.061 C470.778,1.061 458.271,3.225 449.871,9.564 C443.27,14.517 440.274,21.622 440.274,27.585 C440.274,33.596 443.27,40.634 449.871,45.599 C458.271,51.981 470.778,54.09 479.591,54.09 M479.591,7.17 C484.338,7.17 489.802,8.222 493.947,13.758 C497.405,18.079 497.94,23.167 497.94,27.585 C497.94,32.003 497.405,37.024 493.947,41.43 C489.801,46.918 484.338,47.927 479.591,47.927 C474.815,47.927 469.362,46.918 465.181,41.43 C461.857,37.024 461.206,32.003 461.206,27.585 C461.206,23.167 461.856,18.079 465.181,13.758 C469.362,8.222 474.814,7.17 479.591,7.17" id="Shape"></path>
            <path d="M353.946,15.138 C355.593,15.685 357.1,16.384 358.243,17.417 C360.474,19.241 362.303,22.268 362.303,27.172 C362.303,32.138 360.474,35.177 358.243,37.03 C357.1,38.063 355.593,38.762 353.946,39.297 C352.08,39.868 350.014,40.257 347.746,40.257 L345.68,40.257 L345.68,14.177 L347.746,14.177 C350.014,14.178 352.08,14.512 353.946,15.138 M353.946,46.591 C364.588,45.892 370.204,43.254 373.14,41.376 C378.719,37.802 381.272,32.685 381.272,27.172 C381.272,19.855 376.725,15.424 373.14,13.06 C368.114,9.699 361.069,8.228 353.946,7.778 C352.08,7.656 350.141,7.656 348.336,7.656 L346.245,7.656 L346.245,0.77 L327.222,0.77 L327.222,7.656 L325.247,7.656 C323.363,7.656 321.448,7.656 319.582,7.778 C312.41,8.228 305.342,9.698 300.376,13.06 C296.778,15.424 292.231,19.855 292.231,27.172 C292.231,32.685 294.808,37.802 300.376,41.376 C303.299,43.254 308.891,45.892 319.582,46.591 C321.314,46.615 323.156,46.737 325.247,46.737 L327.222,46.737 L327.222,54.097 L346.245,54.097 L346.245,46.737 L348.336,46.737 C350.378,46.736 352.22,46.615 353.946,46.591 M319.582,15.138 C321.375,14.512 323.539,14.178 325.654,14.178 L327.897,14.178 L327.897,40.258 L325.654,40.258 C323.539,40.258 321.375,39.869 319.582,39.298 C317.965,38.763 316.482,38.064 315.297,37.031 C313.145,35.177 311.231,32.138 311.231,27.173 C311.231,22.269 313.145,19.242 315.297,17.418 C316.482,16.384 317.965,15.685 319.582,15.138" id="Shape"></path>
            <path d="M248.855,54.09 C257.68,54.09 270.14,51.981 278.393,45.599 C284.939,40.634 287.977,33.596 287.977,27.585 C287.977,21.623 284.938,14.518 278.393,9.564 C270.14,3.225 257.68,1.061 248.855,1.061 C239.915,1.061 227.455,3.225 219.177,9.564 C212.546,14.517 209.471,21.622 209.471,27.585 C209.471,33.596 212.546,40.634 219.177,45.599 C227.455,51.981 239.915,54.09 248.855,54.09 M248.855,7.17 C253.535,7.17 259.035,8.222 263.229,13.758 C266.578,18.079 267.204,23.167 267.204,27.585 C267.204,32.003 266.578,37.024 263.229,41.43 C259.035,46.918 253.535,47.927 248.855,47.927 C244.06,47.927 238.499,46.918 234.341,41.43 C231.005,37.024 230.53,32.003 230.53,27.585 C230.53,23.167 231.004,18.079 234.341,13.758 C238.499,8.222 244.06,7.17 248.855,7.17" id="Shape"></path>
            <path d="M177.089,10.197 C179.441,10.288 182.34,10.732 184.51,12.093 C187.397,14.008 187.817,16.572 187.817,18.189 C187.817,19.769 187.458,22.559 184.322,24.54 C182.231,26.059 179.582,26.466 177.09,26.667 L175.145,26.667 L166.284,26.667 L166.284,10.087 L175.145,10.087 L177.089,10.197 Z M177.089,34.21 L180.651,34.21 C189.774,34.21 196.155,33.165 200.677,30.351 C206.281,26.802 207.587,21.903 207.587,18.08 C207.587,14.306 206.28,9.517 200.677,6.064 C196.155,3.378 190.023,2.496 179.8,2.496 L177.089,2.496 L147.326,2.496 L147.326,52.583 L166.283,52.583 L166.283,34.21 L177.089,34.21 Z" id="Shape"></path>
            <path d="M43.33,38.197 L51.48,52.583 L72.691,52.583 L43.949,2.496 L26.251,2.496 L0.178,52.583 L9.598,52.583 L17.067,38.197 L43.33,38.197 L43.33,38.197 Z M30.013,14.245 L39.494,31.36 L20.526,31.36 L29.491,13.911 L29.801,13.911 L30.013,14.245 Z" id="Shape"></path>
            <polygon id="Shape" points="515.924 10.087 536.303 10.087 536.303 52.595 555.296 52.595 555.296 10.087 575.809 10.087 575.809 2.49 515.924 2.49"></polygon>
        </g>
    </g>
</svg>